<svg width="24" height="24" viewBox="0 0 24 24" fill="none" xmlns="http://www.w3.org/2000/svg">
<g clip-path="url(#clip0_4084_1647)">
<path d="M17.0729 0H6.92575C6.01613 -1.75478e-08 5.11543 0.179177 4.27507 0.527313C3.43471 0.875449 2.67116 1.38572 2.02803 2.02898C1.38489 2.67224 0.874776 3.43589 0.526804 4.27631C0.178833 5.11674 -0.000178538 6.01748 1.33673e-07 6.9271V17.0729C-0.000178578 17.9824 0.178837 18.8831 0.526825 19.7235C0.874813 20.5638 1.38496 21.3274 2.02811 21.9705C2.67126 22.6137 3.43481 23.1238 4.27516 23.4718C5.11551 23.8198 6.0162 23.9988 6.92575 23.9986H17.0729C17.9825 23.999 18.8834 23.8201 19.7239 23.4722C20.5644 23.1243 21.3281 22.6142 21.9714 21.971C22.6147 21.3278 23.125 20.5642 23.473 19.7238C23.8211 18.8833 24.0002 17.9826 24 17.0729V6.9271C24 6.01742 23.8208 5.11664 23.4727 4.27621C23.1246 3.43577 22.6143 2.67214 21.9711 2.0289C21.3279 1.38566 20.5642 0.875412 19.7238 0.527292C18.8833 0.179173 17.9826 0 17.0729 0ZM21.7894 17.2511C21.789 18.4708 21.3043 19.6405 20.4418 20.503C19.5793 21.3655 18.4096 21.8502 17.1899 21.8506H6.80603C5.58652 21.8498 4.41718 21.365 3.55499 20.5025C2.69279 19.6401 2.20827 18.4706 2.20791 17.2511V6.8686C2.20827 5.64909 2.69279 4.47962 3.55499 3.61717C4.41718 2.75472 5.58652 2.26985 6.80603 2.26913H17.1899C18.4097 2.26913 19.5796 2.75371 20.4422 3.61627C21.3048 4.47884 21.7894 5.64874 21.7894 6.8686V17.2511Z" fill="#D6D6D6"/>
<path d="M11.9959 5.83197C10.7646 5.83251 9.56113 6.1981 8.53757 6.88255C7.51402 7.56699 6.71637 8.53953 6.24548 9.67725C5.77458 10.815 5.65158 12.0668 5.89203 13.2744C6.13248 14.482 6.72558 15.5912 7.59635 16.4618C8.46711 17.3323 9.57644 17.9252 10.7841 18.1654C11.9918 18.4055 13.2435 18.2823 14.3811 17.8111C15.5187 17.34 16.4911 16.5421 17.1753 15.5184C17.8596 14.4947 18.2249 13.2911 18.2252 12.0598C18.2253 11.2418 18.0643 10.4318 17.7513 9.676C17.4383 8.92023 16.9795 8.23354 16.401 7.65518C15.8225 7.07681 15.1357 6.61811 14.3799 6.30527C13.624 5.99244 12.814 5.83161 11.9959 5.83197V5.83197ZM11.9959 16.0961C11.1973 16.0961 10.4166 15.8593 9.75262 15.4155C9.0886 14.9718 8.57108 14.3412 8.26552 13.6033C7.95996 12.8654 7.88009 12.0535 8.03599 11.2703C8.19189 10.487 8.57657 9.76757 9.14138 9.20295C9.70619 8.63833 10.4258 8.2539 11.2091 8.09826C11.9924 7.94262 12.8043 8.02276 13.542 8.32856C14.2798 8.63437 14.9103 9.1521 15.3538 9.81626C15.7973 10.4804 16.0339 11.2612 16.0336 12.0598C16.0336 12.59 15.9291 13.115 15.7262 13.6048C15.5233 14.0946 15.2258 14.5396 14.8509 14.9144C14.476 15.2892 14.0308 15.5865 13.541 15.7892C13.0511 15.992 12.5261 16.0963 11.9959 16.0961Z" fill="#D6D6D6"/>
<path d="M18.4333 4.14374C18.1462 4.14374 17.8655 4.22887 17.6268 4.38837C17.3881 4.54787 17.2021 4.77456 17.0922 5.03979C16.9823 5.30503 16.9536 5.59688 17.0096 5.87845C17.0656 6.16002 17.2039 6.41867 17.4069 6.62167C17.6099 6.82467 17.8685 6.96293 18.1501 7.01893C18.4316 7.07494 18.7235 7.04618 18.9887 6.93632C19.254 6.82646 19.4807 6.64042 19.6402 6.40172C19.7997 6.16302 19.8848 5.88236 19.8848 5.59528C19.8848 5.2103 19.7319 4.84112 19.4596 4.5689C19.1874 4.29669 18.8182 4.14374 18.4333 4.14374Z" fill="#D6D6D6"/>
</g>
<defs>
<clipPath id="clip0_4084_1647">
<rect width="24" height="24" fill="white"/>
</clipPath>
</defs>
</svg>
