<svg width="24" height="24" viewBox="0 0 24 24" fill="none" xmlns="http://www.w3.org/2000/svg">
<g clip-path="url(#clip0_4084_1633)">
<path fill-rule="evenodd" clip-rule="evenodd" d="M12 3.42712C15.4681 3.42712 19.8334 3.59961 20.7394 3.73723V3.73375C21.4711 3.79179 22.16 4.10407 22.6885 4.61724C23.217 5.13041 23.5523 5.81259 23.637 6.54721C23.8575 8.30826 23.9787 10.0805 24 11.8554V12.1411C23.9786 13.9171 23.8574 15.6905 23.637 17.4527C23.5509 18.1865 23.2151 18.8675 22.6868 19.3798C22.1585 19.8922 21.4703 20.2042 20.7394 20.2627C19.8324 20.3985 15.4694 20.5726 12.0008 20.5728C8.53227 20.5726 4.16585 20.402 3.2606 20.2662C2.52995 20.2079 1.84204 19.8958 1.31424 19.3834C0.786442 18.8709 0.451475 18.1898 0.366501 17.4562C0.142916 15.6943 0.0205559 13.9207 0 12.1446V11.8589C0.0204771 10.0838 0.142838 8.31148 0.366501 6.5507C0.450729 5.81649 0.785371 5.13455 1.31324 4.62138C1.8411 4.10822 2.52943 3.79572 3.2606 3.73723C4.16653 3.60135 8.53191 3.42712 12 3.42712ZM12.0008 20.5728C11.9983 20.5728 11.9957 20.5728 11.9931 20.5728H12.0087C12.006 20.5728 12.0034 20.5728 12.0008 20.5728ZM14.8768 11.9287L9.1232 8.90094V15.0993L14.8768 11.9287Z" fill="#D6D6D6"/>
</g>
<defs>
<clipPath id="clip0_4084_1633">
<rect width="24" height="24" fill="white"/>
</clipPath>
</defs>
</svg>
